<?xml version="1.0" ?>
<!-- Uploaded to: SVG Repo, www.svgrepo.com, Generator: SVG Repo Mixer Tools -->
<svg fill="#000000" width="800px" height="800px" viewBox="0 0 32 32" enable-background="new 0 0 32 32" id="Layer_3" version="1.1" xml:space="preserve" xmlns="http://www.w3.org/2000/svg" xmlns:xlink="http://www.w3.org/1999/xlink">
<g>
<path d="M5.446,10h1.107C8.454,10,10,8.454,10,6.554V5.446C10,3.546,8.454,2,6.554,2H5.446C3.546,2,2,3.546,2,5.446v1.107   C2,8.454,3.546,10,5.446,10z M4,5.446C4,4.649,4.648,4,5.446,4h1.107C7.352,4,8,4.649,8,5.446v1.107C8,7.351,7.352,8,6.554,8H5.446   C4.648,8,4,7.351,4,6.554V5.446z"/>
<path d="M5.42,24H8c0.552,0,1,0.448,1,1v4c0,0.553,0.447,1,1,1h4c0.553,0,1-0.447,1-1v-3.865c0-2.315-1.286-4.396-3.356-5.431   L9,18.382v-0.784l2.6,0.953c1.08,0.397,2.283-0.079,2.798-1.109c0.509-1.017,0.179-2.259-0.768-2.89l-5.075-3.384   C8.391,11.059,8.197,11,8,11H4.884C3.294,11,2,12.293,2,13.884v6.696C2,22.466,3.534,24,5.42,24z M4,13.884   C4,13.396,4.396,13,4.884,13h2.813l4.823,3.216c0.108,0.072,0.146,0.214,0.088,0.332c-0.059,0.117-0.191,0.171-0.32,0.126   l-3.944-1.446c-0.306-0.113-0.648-0.068-0.916,0.119C7.159,15.534,7,15.84,7,16.167V19c0,0.379,0.214,0.725,0.553,0.895   l3.196,1.599C12.138,22.187,13,23.582,13,25.135V28h-2v-3c0-1.654-1.346-3-3-3H5.42C4.637,22,4,21.363,4,20.58V13.884z"/>
<path d="M26.554,2h-1.107C23.546,2,22,3.546,22,5.446v1.107C22,8.454,23.546,10,25.446,10h1.107C28.454,10,30,8.454,30,6.554V5.446   C30,3.546,28.454,2,26.554,2z M28,6.554C28,7.351,27.352,8,26.554,8h-1.107C24.648,8,24,7.351,24,6.554V5.446   C24,4.649,24.648,4,25.446,4h1.107C27.352,4,28,4.649,28,5.446V6.554z"/>
<path d="M27.116,11H24c-0.197,0-0.391,0.059-0.555,0.168l-5.075,3.384c-0.946,0.631-1.276,1.873-0.768,2.889   c0.514,1.03,1.718,1.511,2.797,1.11L23,17.598v0.784l-2.644,1.322C18.286,20.738,17,22.819,17,25.135V29c0,0.553,0.447,1,1,1h4   c0.553,0,1-0.447,1-1v-4c0-0.552,0.448-1,1-1h2.58c1.886,0,3.42-1.534,3.42-3.42v-6.696C30,12.293,28.706,11,27.116,11z M28,20.58   c0,0.783-0.637,1.42-1.42,1.42H24c-1.654,0-3,1.346-3,3v3h-2v-2.865c0-1.553,0.862-2.948,2.251-3.642l3.196-1.599   C24.786,19.725,25,19.379,25,19v-2.833c0-0.327-0.159-0.633-0.428-0.82c-0.268-0.188-0.611-0.232-0.916-0.119l-3.945,1.446   c-0.126,0.045-0.261-0.01-0.319-0.128c-0.059-0.116-0.021-0.258,0.088-0.33L24.303,13h2.813C27.604,13,28,13.396,28,13.884V20.58z"/>
</g>
</svg>