<?xml version="1.0" encoding="utf-8"?>

<!DOCTYPE svg PUBLIC "-//W3C//DTD SVG 1.1//EN" "http://www.w3.org/Graphics/SVG/1.1/DTD/svg11.dtd">
<!-- Uploaded to: SVG Repo, www.svgrepo.com, Generator: SVG Repo Mixer Tools -->
<svg version="1.1" id="_x32_" xmlns="http://www.w3.org/2000/svg" xmlns:xlink="http://www.w3.org/1999/xlink" 
	 width="800px" height="800px" viewBox="0 0 512 512"  xml:space="preserve">
<style type="text/css">
<![CDATA[
	.st0{fill:#000000;}
]]>
</style>
<g>
	<path class="st0" d="M256.016,0C114.609,0,0,114.625,0,255.984C0,397.359,114.609,512,256.016,512
		C397.391,512,512,397.359,512,255.984C512,114.625,397.391,0,256.016,0z M341.781,103.266l87.516,89.953l-127.766,33.109
		L341.781,103.266z M256.016,245.781l25.859,37.016h-25.859h-25.891L256.016,245.781z M170.219,103.266l40.25,123.063
		L82.703,193.219L170.219,103.266z M351.563,417.719l-3.5-26.719l-34.469,8.891v34.578c-18.188,5.688-37.5,8.828-57.625,8.828
		c-14.156,0-27.953-1.563-41.219-4.5l-3.484-31.516l-40.078-4.344l1.391,21.234c-63.766-31-107.656-96.344-107.656-171.969
		c0-10.922,0.922-21.609,2.672-32.016c9.484,40.938,43.531,75.844,90.813,96.344V357l43.844,3.438l1.25-29.766
		c16.688,3.453,34.297,5.359,52.469,5.359c25,0,48.781-3.516,70.641-9.875l3.922,34.281l42.625-5.922l1.047-48.313
		c36.422-20.922,62.141-51.297,70.203-86.016c1.75,10.406,2.703,21.094,2.703,32.016
		C447.109,322.938,408.656,384.656,351.563,417.719z"/>
</g>
</svg>